<svg xmlns="http://www.w3.org/2000/svg" viewBox="0 0 1200 720" role="img" aria-labelledby="t d">
  <title id="t">Driver app dummy screenshot</title>
  <desc id="d">Placeholder screen for trip actions and earnings summary.</desc>
  <defs>
    <linearGradient id="bg" x1="0" y1="0" x2="1" y2="1">
      <stop offset="0" stop-color="#e9fff6"/>
      <stop offset="1" stop-color="#d2f3e8"/>
    </linearGradient>
    <linearGradient id="pill" x1="0" y1="0" x2="1" y2="1">
      <stop offset="0" stop-color="#0f8a72"/>
      <stop offset="1" stop-color="#0b6b5a"/>
    </linearGradient>
  </defs>

  <rect width="1200" height="720" fill="url(#bg)"/>
  <rect x="48" y="34" width="1104" height="82" rx="20" fill="#ffffff" stroke="#9fd3c3"/>
  <rect x="88" y="64" width="240" height="24" rx="8" fill="#0b6b5a" fill-opacity="0.22"/>
  <rect x="910" y="57" width="210" height="38" rx="19" fill="url(#pill)"/>

  <rect x="70" y="138" width="1060" height="170" rx="24" fill="#0f172a"/>
  <rect x="102" y="174" width="320" height="22" rx="10" fill="#d5f7eb" fill-opacity="0.2"/>
  <rect x="102" y="208" width="460" height="18" rx="8" fill="#d5f7eb" fill-opacity="0.18"/>
  <rect x="102" y="238" width="380" height="18" rx="8" fill="#d5f7eb" fill-opacity="0.18"/>
  <rect x="876" y="178" width="220" height="90" rx="18" fill="#0f8a72"/>

  <rect x="70" y="328" width="510" height="304" rx="22" fill="#ffffff" stroke="#9fd3c3"/>
  <rect x="620" y="328" width="510" height="304" rx="22" fill="#ffffff" stroke="#9fd3c3"/>

  <rect x="100" y="362" width="120" height="16" rx="8" fill="#1a2d38" fill-opacity="0.24"/>
  <rect x="100" y="390" width="450" height="54" rx="14" fill="#ecfaf5" stroke="#b8e7d8"/>
  <rect x="100" y="460" width="450" height="54" rx="14" fill="#ecfaf5" stroke="#b8e7d8"/>
  <rect x="100" y="530" width="220" height="50" rx="25" fill="url(#pill)"/>
  <rect x="340" y="530" width="210" height="50" rx="25" fill="#f5fbff" stroke="#b8d8ef"/>

  <rect x="650" y="362" width="140" height="16" rx="8" fill="#1a2d38" fill-opacity="0.24"/>
  <rect x="650" y="392" width="450" height="70" rx="16" fill="#eff8ff" stroke="#cde4f6"/>
  <rect x="650" y="476" width="450" height="70" rx="16" fill="#eff8ff" stroke="#cde4f6"/>
  <rect x="650" y="560" width="450" height="42" rx="12" fill="#f6fbff" stroke="#cde4f6"/>

  <text x="76" y="686" fill="#0f172a" fill-opacity="0.62" font-family="Arial, sans-serif" font-size="22">Dummy preview: driver trip workflow and earnings</text>
</svg>
